<svg width="21" height="22" viewBox="0 0 21 22" fill="none" xmlns="http://www.w3.org/2000/svg">
<path d="M20.6593 10.9871C20.6593 5.33793 16.0808 0.759441 10.4316 0.759441C4.78241 0.759441 0.203918 5.33793 0.203918 10.9871C0.203918 16.6363 4.78241 21.2148 10.4316 21.2148C10.4915 21.2148 10.5515 21.2148 10.6114 21.2108V13.2524H8.41404V10.6915H10.6114V8.80576C10.6114 6.62039 11.9458 5.42982 13.8954 5.42982C14.8303 5.42982 15.6334 5.49774 15.8651 5.5297V7.81495H14.5227C13.464 7.81495 13.2562 8.31835 13.2562 9.05746V10.6875H15.7932L15.4616 13.2484H13.2562V20.8193C17.5311 19.5928 20.6593 15.6575 20.6593 10.9871Z" fill="#3B5999"/>
</svg>
