<svg width="21" height="22" viewBox="0 0 21 22" fill="none" xmlns="http://www.w3.org/2000/svg">
<g clip-path="url(#clip0_318_5669)">
<path d="M4.58352 13.1209L3.87149 15.779L1.26906 15.834C0.49132 14.3915 0.0501709 12.741 0.0501709 10.9871C0.0501709 9.29113 0.462635 7.69177 1.19375 6.2835H1.19431L3.51121 6.70827L4.52614 9.01126C4.31372 9.63056 4.19794 10.2954 4.19794 10.9871C4.19802 11.7379 4.33402 12.4572 4.58352 13.1209Z" fill="#FBBB00"/>
<path d="M20.3268 9.07646C20.4443 9.69516 20.5055 10.3341 20.5055 10.9871C20.5055 11.7194 20.4285 12.4336 20.2819 13.1226C19.784 15.4671 18.483 17.5143 16.6809 18.963L16.6803 18.9625L13.762 18.8136L13.349 16.2353C14.5449 15.534 15.4794 14.4365 15.9717 13.1226H10.5027V9.07646H16.0515H20.3268Z" fill="#518EF8"/>
<path d="M16.6803 18.9625L16.6808 18.963C14.9281 20.3719 12.7016 21.2148 10.2778 21.2148C6.38289 21.2148 2.99652 19.0378 1.26904 15.8341L4.5835 13.1209C5.44722 15.4261 7.6709 17.067 10.2778 17.067C11.3984 17.067 12.4482 16.7641 13.3489 16.2353L16.6803 18.9625Z" fill="#28B446"/>
<path d="M16.8062 3.11404L13.4929 5.82662C12.5606 5.24388 11.4586 4.90725 10.2779 4.90725C7.61195 4.90725 5.34667 6.62346 4.52622 9.01127L1.19435 6.28351H1.19379C2.89598 3.00166 6.32505 0.759438 10.2779 0.759438C12.7595 0.759438 15.0349 1.64341 16.8062 3.11404Z" fill="#F14336"/>
</g>
<defs>
<clipPath id="clip0_318_5669">
<rect width="20.4554" height="20.4554" fill="white" transform="translate(0.0501709 0.759441)"/>
</clipPath>
</defs>
</svg>
